<svg xmlns="http://www.w3.org/2000/svg" viewBox="0 0 1080 1080" width="1080" height="1080"><g transform="translate(111.0 186.0) rotate(0.0 227.0 555.0) translate(0.0 0.0) scale(2.0545217580189705 2.0558372814052293)"><svg width="220.976" height="399.351" viewBox="0 0 220.976 399.351"><path d="M220.976 539.926H0V200.595C0 89.809 89.809 0 200.595 0h20.381z" fill="#115693"/></svg></g><g transform="translate(452.0 88.0) rotate(0.0 267.0 510.5) translate(80.69688433671539 0.0) scale(1.9705306041115453 1.9716134015641593)"><svg width="230.041" height="425.54" viewBox="40.952 0 230.041 425.54"><path d="M270.993 517.85H0V0h61.988c115.43 0 209.005 93.575 209.005 209.005z" fill="#050c04"/></svg></g><g transform="translate(-147.0 444.0) rotate(0.0 446.5 470.0) translate(655.9195057305049 0.0) scale(1.5606976825474503 1.5610546751096475)"><svg width="151.855" height="96.729" viewBox="420.273 0 151.855 96.729"><path d="M60.271 602.157a60.3 60.3 0 0 1 .029-120.6h199.994a70.7 70.7 0 0 0 70.618-70.619V85.618A85.716 85.716 0 0 1 416.531 0h50.49A105.278 105.278 0 0 1 572.18 105.159a7.5 7.5 0 0 1-15 0A90.261 90.261 0 0 0 467.021 15h-50.49a70.7 70.7 0 0 0-70.619 70.618v325.321a85.716 85.716 0 0 1-85.618 85.619H60.3a45.3 45.3 0 1 0 .7 90.594l129.417-2 .231 15-129.416 2c-.321.003-.642.005-.961.005z" fill="#ffeea6"/></svg></g><g transform="translate(1230.0 443.0) rotate(0.0 -446.5 470.0) translate(-657.7453151831307 0.0) scale(-1.5606976825474503 1.5610546751096475)"><svg width="150.737" height="96.729" viewBox="421.443 0 150.737 96.729"><path d="M60.271 602.157a60.3 60.3 0 0 1 .029-120.6h199.994a70.7 70.7 0 0 0 70.618-70.619V85.618A85.716 85.716 0 0 1 416.531 0h50.49A105.278 105.278 0 0 1 572.18 105.159a7.5 7.5 0 0 1-15 0A90.261 90.261 0 0 0 467.021 15h-50.49a70.7 70.7 0 0 0-70.619 70.618v325.321a85.716 85.716 0 0 1-85.618 85.619H60.3a45.3 45.3 0 1 0 .7 90.594l129.417-2 .231 15-129.416 2c-.321.003-.642.005-.961.005z" fill="#ffeea6"/></svg></g><g transform="translate(312.0 719.0) rotate(0.0 327.5 61.5) translate(38.19253438113949 0.0) scale(1.3946555945917174 1.3996995766762255)"><svg width="275.337" height="87.876" viewBox="27.385 0 275.337 87.876"><path d="M.115 32.143c12.382-4.781 100.643-78.1 469.535 14.123v41.61H.397S-.258 32.287.115 32.143z" fill="#108E82"/></svg></g><g transform="translate(-125.0 769.0) rotate(0.0 645.0 121.0) translate(222.78978388998036 0.0) scale(2.7467262855317793 2.753880467932086)"><svg width="322.93" height="87.876" viewBox="81.111 0 322.93 87.876"><path d="M.115 32.143c12.382-4.781 100.643-78.1 469.535 14.123v41.61H.397S-.258 32.287.115 32.143z" fill="#ffeea6"/></svg></g><g transform="translate(1261.0 405.0) rotate(0.0 -446.5 470.0) translate(-376.54204534608107 188.8253122557515) scale(-1.5606976825474503 1.5610546751096475)"><svg width="137.759" height="179.366" viewBox="241.265 120.96 137.759 179.366"><path d="M60.271 602.157a60.3 60.3 0 0 1 .029-120.6h199.994a70.7 70.7 0 0 0 70.618-70.619V85.618A85.716 85.716 0 0 1 416.531 0h50.49A105.278 105.278 0 0 1 572.18 105.159a7.5 7.5 0 0 1-15 0A90.261 90.261 0 0 0 467.021 15h-50.49a70.7 70.7 0 0 0-70.619 70.618v325.321a85.716 85.716 0 0 1-85.618 85.619H60.3a45.3 45.3 0 1 0 .7 90.594l129.417-2 .231 15-129.416 2c-.321.003-.642.005-.961.005z" fill="#ffeea6"/></svg></g><g transform="translate(878.0 400.0) rotate(0.0 -446.5 470.0) translate(-376.54204534608107 188.8253122557515) scale(-1.5606976825474503 1.5610546751096475)"><svg width="137.759" height="179.366" viewBox="241.265 120.96 137.759 179.366"><path d="M60.271 602.157a60.3 60.3 0 0 1 .029-120.6h199.994a70.7 70.7 0 0 0 70.618-70.619V85.618A85.716 85.716 0 0 1 416.531 0h50.49A105.278 105.278 0 0 1 572.18 105.159a7.5 7.5 0 0 1-15 0A90.261 90.261 0 0 0 467.021 15h-50.49a70.7 70.7 0 0 0-70.619 70.618v325.321a85.716 85.716 0 0 1-85.618 85.619H60.3a45.3 45.3 0 1 0 .7 90.594l129.417-2 .231 15-129.416 2c-.321.003-.642.005-.961.005z" fill="#ffeea6"/></svg></g><g transform="translate(711.0 607.0) rotate(20.53522795606951 151.5 213.5) scale(2.140782975476377 2.143434414420746)"><svg width="141.537" height="199.213" viewBox="0 0 141.537 199.213"><path d="M114.888 199.213H26.649C11.931 199.213 0 187.282 0 172.564V38.872C0 17.404 17.404 0 38.872 0h63.792c21.469 0 38.872 17.404 38.872 38.872v133.691c.001 14.719-11.93 26.65-26.648 26.65z" fill="#115693"/><path d="M22.258 28.468h97.021v138.766H22.258z" fill="#FFEEA6"/><circle cx="70.768" cy="183.83" fill="#FFB6B7" r="8.576"/><circle cx="70.768" cy="15.455" fill="#FFEEA6" r="4.596"/></svg></g><g transform="translate(560.0 519.0) rotate(-157.86303891209317 184.5 190.0) translate(0.0 0.0) scale(2.5317324185248715 2.546746196635614)"><svg width="27.649" height="14.136" viewBox="0 0 27.649 14.136"><g fill="#ee442b"><path d="M4.26 20.12 0 16.58 11.77 2.42l11.78 14.16-4.26 3.54-7.52-9.03z"/><path d="M139.22 139.98H9V9.43h5.55v125.01h124.67z"/><path d="m131.59 148.98-3.55-4.26 9.04-7.51-9.04-7.52 3.55-4.26 14.16 11.78z"/></g></svg></g><g transform="translate(689.0 119.0) rotate(0.0 -312.5 444.0) scale(-2.169370570145296 2.1635898048139874)"><svg width="288.102" height="410.429" viewBox="0 0 288.102 410.429"><path d="M246.703 39.288C227.557 4.213 183.602-8.7 148.527 10.446a73.362 73.362 0 0 0-4.819 2.875l-9.52 5.737c-34.147 18.639-46.006 61.042-27.367 95.189l13.643 24.993 15.187-8.29 4.934 9.04 3.979-2.172 4.076 7.589c6.561 12.216 19.966 13.547 32.214 7.045l11.692-6.207 20.116 36.739 49.017-26.756-20.981-38.334c16.802-22.016 20.131-52.726 6.005-78.606z" fill="#ffc1a3"/><circle cx="133.768" cy="90.515" fill="#0f0f0e" r="6.734"/><path d="M288.091 143.182h-11.198c-49.691 0-89.973 40.282-89.973 89.973v177.274h101.171z" fill="#ee442b"/><path d="m215.8 335.26 72.302 27.566-.011-118.949H215.8z" fill="#ffc49c"/><path d="M211.02 239.416h77.071v38.242H211.02z" fill="#108e82"/><path d="m288.102 362.826-32.387-63.896-158.703-1.673 25.494 47.802z" fill="#ffc49c"/><path d="m164.626 109.899.209 2.629a11.537 11.537 0 0 1-7.209 11.622l-6.195 2.483-15.781 4.318-2.526 13.027 28.801-15.972c6.635-3.68 7.973-12.652 2.701-18.107zM89.323 59.998s37.21 12.391 82.478-29.459c0 0-2.444 80.045 58.425 61.524l10.989 26.95 24.317-13.818-11.765-48.042c-2.528-17.325-27.709-80.811-107.969-47.769-17.359 7.147-32.902 18.072-43.914 33.275z" fill="#050c04"/><path d="m194.369 62.622-6.24 26.789a55.672 55.672 0 0 1-21.542 32.442l-22.023 15.966s1.154 20.252 14.359 33.467c0 0 80.183-27.703 65.171-91.123z" fill="#050c04"/><g fill="#ffc49c"><path d="M23.715 315.741 2.901 336.742c-3.899 3.942-3.863 10.298.078 14.196 3.942 3.899 10.298 3.863 14.196-.078l22.114-22.293z"/><path d="m53.91 313.271-20.814 21.002c-3.899 3.942-3.863 10.298.078 14.196 3.942 3.899 10.298 3.863 14.196-.078l22.114-22.293z"/><path d="m75.66 313.351-20.814 21.002c-3.899 3.942-3.863 10.298.078 14.196 3.942 3.899 10.298 3.863 14.196-.078l22.114-22.293z"/><path d="m96.693 317.653-20.814 21.002c-3.899 3.942-3.863 10.298.078 14.196 3.942 3.899 10.298 3.863 14.196-.078l22.114-22.293z"/><path d="M111.83 297.855s-54.734-20.794-92.378 21.989l16.253 13.026 57.96 15.536 6.896-.225a92.753 92.753 0 0 0 15.377-1.793l6.568-1.328z"/></g><path d="m135.333 346.471-13.863-1.202V297.45h13.863z" fill="#050c04"/><ellipse cx="128.441" cy="321.181" fill="#050c04" rx="9.53" ry="19.918"/><path d="M100.138 110.363a3.5 3.5 0 0 1-1.836-6.483l12.932-7.944a3.5 3.5 0 0 1 3.664 5.964l-12.932 7.944a3.483 3.483 0 0 1-1.828.519zm50.657-37.119a3.499 3.499 0 0 1-2.484-5.965c1.401-1.412 2.842-2.932 4.368-4.541 8.523-8.987 18.183-19.174 30.033-20.73l13.816-1.815a3.5 3.5 0 1 1 .912 6.94l-13.816 1.815c-9.391 1.234-18.144 10.465-25.866 18.607-1.554 1.639-3.021 3.187-4.478 4.654a3.495 3.495 0 0 1-2.485 1.035z"/><path d="M124.115 122.718 99.138 82.535l43.431-26.996 24.977 40.184zm-9.85-36.653 13.381 21.526 24.774-15.399-13.381-21.526z" fill="#115693"/><path d="M186.181 47.427c-.221.117-.437.24-.65.365l15.675 29.649c.224-.106.447-.215.668-.332 8.196-4.333 11.328-14.491 6.995-22.688s-14.491-11.327-22.688-6.994z" fill="#ffc1a3"/><path d="M208.646 217.445h7v80.986h-7z" fill="#050c04"/></svg></g><g transform="translate(798.0 751.0) rotate(21.30431570256937 181.0 186.0) translate(0.0 0.0) scale(2.4837049742710122 2.493130487232759)"><svg width="27.781" height="14.44" viewBox="0 0 27.781 14.44"><g fill="#ee442b"><path d="M4.26 20.12 0 16.58 11.77 2.42l11.78 14.16-4.26 3.54-7.52-9.03z"/><path d="M139.22 139.98H9V9.43h5.55v125.01h124.67z"/><path d="m131.59 148.98-3.55-4.26 9.04-7.51-9.04-7.52 3.55-4.26 14.16 11.78z"/></g></svg></g><g transform="translate(473.0 559.0) rotate(0.0 116.0 82.5) translate(0.0 0.0) scale(0.7337360447832 0.7301886541959296)"><svg width="316.19" height="225.969" viewBox="0 0 316.19 225.969"><g fill="#108e82"><path d="M137.542 225.97c-4.629-62.261-27.637-115.4-68.387-157.953l3.611-3.458c41.573 43.409 65.045 97.591 69.763 161.04z"/><path d="m126 150.069-3.367-3.7c31.145-28.359 71.8-41.9 72.21-42.035.359-.115 34.649-10.9 79.177-10.346l-.063 5c-43.682-.549-77.24 10-77.574 10.1-.383.131-40.056 13.362-70.383 40.981z"/><ellipse cx="50.49" cy="50.49" rx="29.612" ry="70.926" transform="matrix(.70710678 -.70710678 .70710678 .70710678 -20.913 50.49)"/><path d="m202.689 106.786-4.985-.394c.623-7.88-9.831-19.507-13.911-23.322l3.414-3.652c.671.627 16.419 15.497 15.482 27.368zm25.791-4.215-2.4-4.384c5.309-2.913 8.541-7.639 9.6-14.046a28.112 28.112 0 0 0-.03-9.223l4.891-1.033c.04.197 4.01 19.868-12.061 28.686zm-25.696 34.774-4.6-1.971c5.05-11.775-11.166-23.666-11.33-23.785l2.922-4.058a46.507 46.507 0 0 1 8.832 8.744c5.527 7.268 6.969 14.554 4.176 21.07z"/></g><circle cx="174.692" cy="73.284" fill="#ee442b" r="26.844"/><path d="m150.672 55.325 7.906-7.907 4.974 4.974-7.907 7.906z" fill="#115693"/><circle cx="235.87" cy="53.306" fill="#ee442b" r="26.844"/><path d="m230.54 23.947 11.18-.133.083 7.034-11.18.132z" fill="#115693"/><circle cx="218.288" cy="146.892" fill="#ee442b" r="26.844"/><path d="m239.986 166.59-8.732 6.983-4.394-5.492 8.732-6.985z" fill="#115693"/><circle cx="286.771" cy="102.504" fill="#ee442b" r="26.844"/><path d="m316.188 107.497-3.686 10.556-6.64-2.319 3.685-10.556z" fill="#115693"/></svg></g><g transform="translate(520.0 645.0) rotate(0.0 -60.5 43.0) translate(-0.049798858614920505 0.0) scale(-0.3826812992188241 0.3805831773384845)"><svg width="316.06" height="225.969" viewBox="0.13 0 316.06 225.969"><g fill="#108e82"><path d="M137.542 225.97c-4.629-62.261-27.637-115.4-68.387-157.953l3.611-3.458c41.573 43.409 65.045 97.591 69.763 161.04z"/><path d="m126 150.069-3.367-3.7c31.145-28.359 71.8-41.9 72.21-42.035.359-.115 34.649-10.9 79.177-10.346l-.063 5c-43.682-.549-77.24 10-77.574 10.1-.383.131-40.056 13.362-70.383 40.981z"/><ellipse cx="50.49" cy="50.49" rx="29.612" ry="70.926" transform="matrix(.70710678 -.70710678 .70710678 .70710678 -20.913 50.49)"/><path d="m202.689 106.786-4.985-.394c.623-7.88-9.831-19.507-13.911-23.322l3.414-3.652c.671.627 16.419 15.497 15.482 27.368zm25.791-4.215-2.4-4.384c5.309-2.913 8.541-7.639 9.6-14.046a28.112 28.112 0 0 0-.03-9.223l4.891-1.033c.04.197 4.01 19.868-12.061 28.686zm-25.696 34.774-4.6-1.971c5.05-11.775-11.166-23.666-11.33-23.785l2.922-4.058a46.507 46.507 0 0 1 8.832 8.744c5.527 7.268 6.969 14.554 4.176 21.07z"/></g><circle cx="174.692" cy="73.284" fill="#ee442b" r="26.844"/><path d="m150.672 55.325 7.906-7.907 4.974 4.974-7.907 7.906z" fill="#115693"/><circle cx="235.87" cy="53.306" fill="#ee442b" r="26.844"/><path d="m230.54 23.947 11.18-.133.083 7.034-11.18.132z" fill="#115693"/><circle cx="218.288" cy="146.892" fill="#ee442b" r="26.844"/><path d="m239.986 166.59-8.732 6.983-4.394-5.492 8.732-6.985z" fill="#115693"/><circle cx="286.771" cy="102.504" fill="#ee442b" r="26.844"/><path d="m316.188 107.497-3.686 10.556-6.64-2.319 3.685-10.556z" fill="#115693"/></svg></g><g transform="translate(560.0 502.0) rotate(0.0 19.5 19.5) scale(0.8037922506183017 0.8037922506183017)"><svg width="48.52" height="48.52" viewBox="0 0 48.52 48.52"><g fill="#ffeea6"><path d="M24.26 48.52a3.89 3.89 0 0 1-3.89-3.89V3.89a3.9 3.9 0 0 1 7.79 0v40.74a3.9 3.9 0 0 1-3.9 3.89z"/><path d="M44.63 28.16H3.89a3.9 3.9 0 0 1 0-7.79h40.74a3.9 3.9 0 0 1 0 7.79z"/><path d="M38.66 42.56a3.89 3.89 0 0 1-2.75-1.14L7.11 12.61a3.89 3.89 0 0 1 5.5-5.5l28.81 28.8a3.9 3.9 0 0 1-2.76 6.65z"/><path d="M9.86 42.56a3.9 3.9 0 0 1-2.75-6.65l28.8-28.8a3.89 3.89 0 0 1 5.51 5.5L12.61 41.42a3.87 3.87 0 0 1-2.75 1.14z"/></g></svg></g><g transform="translate(490.0 417.0) rotate(0.0 44.5 52.0) translate(0.0 36.07072691552063) scale(0.8673618555696326 0.8641462401329456)"><svg width="102.61" height="78.609" viewBox="0 41.741 102.61 78.609"><path d="M47.1 0h8v68.84h-8z" fill="#FFEEA6"/><path d="m51.1 68.84 48.68 48.68" fill="#ffc49c"/><path d="m48.275 71.674 5.657-5.657 48.677 48.677-5.656 5.657z" fill="#FFEEA6"/><path d="M51.51 68.84 2.83 117.52" fill="#ffc49c"/><path d="M.003 114.686 48.68 66.01l5.657 5.657L5.66 120.343z" fill="#FFEEA6"/><circle cx="51.1" cy="68.84" fill="#ee442b" r="11.89"/></svg></g><g transform="translate(470.0 503.0) rotate(0.0 19.5 19.5) scale(0.8037922506183017 0.8037922506183017)"><svg width="48.52" height="48.52" viewBox="0 0 48.52 48.52"><g fill="#ffeea6"><path d="M24.26 48.52a3.89 3.89 0 0 1-3.89-3.89V3.89a3.9 3.9 0 0 1 7.79 0v40.74a3.9 3.9 0 0 1-3.9 3.89z"/><path d="M44.63 28.16H3.89a3.9 3.9 0 0 1 0-7.79h40.74a3.9 3.9 0 0 1 0 7.79z"/><path d="M38.66 42.56a3.89 3.89 0 0 1-2.75-1.14L7.11 12.61a3.89 3.89 0 0 1 5.5-5.5l28.81 28.8a3.9 3.9 0 0 1-2.76 6.65z"/><path d="M9.86 42.56a3.9 3.9 0 0 1-2.75-6.65l28.8-28.8a3.89 3.89 0 0 1 5.51 5.5L12.61 41.42a3.87 3.87 0 0 1-2.75 1.14z"/></g></svg></g><g transform="translate(522.0 355.0) rotate(0.0 10.0 46.5) scale(0.6963060961598719 0.7100374869253849)"><svg width="28.723" height="130.979" viewBox="0 0 28.723 130.979"><rect fill="#FFEEA6" height="130.979" rx="9" width="28.723"/></svg></g><g transform="translate(511.0 323.0) rotate(0.0 20.5 20.5) scale(2.780603594438793 2.780603594438793)"><svg width="14.745" height="14.745" viewBox="0 0 14.745 14.745"><circle cx="7.372" cy="7.372" fill="#EE442B" r="7.372"/></svg></g><g transform="translate(571.0 932.0) rotate(0.0 27.0 27.0) scale(1.0424710424710426 1.0424710424710426)"><svg width="51.8" height="51.8" viewBox="0 0 51.8 51.8"><path d="M25.9 51.8C11.6 51.8 0 40.2 0 25.9S11.6 0 25.9 0s25.9 11.6 25.9 25.9-11.6 25.9-25.9 25.9zm0-40c-7.8 0-14.1 6.3-14.1 14.1S18.1 40 25.9 40 40 33.7 40 25.9s-6.3-14.1-14.1-14.1z" fill="#108E82"/></svg></g><g transform="translate(349.0 924.0) rotate(0.0 12.5 12.5) scale(1.69548999660902 1.69548999660902)"><svg width="14.745" height="14.745" viewBox="0 0 14.745 14.745"><circle cx="7.372" cy="7.372" fill="#115693" r="7.372"/></svg></g><g transform="translate(778.0 971.0) rotate(0.0 20.5 20.5) scale(2.780603594438793 2.780603594438793)"><svg width="14.745" height="14.745" viewBox="0 0 14.745 14.745"><circle cx="7.372" cy="7.372" fill="#050c04" r="7.372"/></svg></g><g transform="translate(666.0 155.0) rotate(-90.00000000000013 71.0 61.0) scale(1.2992597879095642 1.2973064939760317)"><svg width="109.293" height="94.041" viewBox="0 0 109.293 94.041"><path d="M73.896 46.687h35.397v3.867H73.896z" fill="#ffeea6"/><path d="M0 46.687h28.594v3.867H0zm65.172-14.764L75.375 21.72l2.735 2.734-10.203 10.203z" fill="#ee442b"/><g fill="#ffeea6"><path d="m23.82 73.275 9.318-9.32 2.734 2.735-9.319 9.32zm10.5-40.145-9.546-9.547 2.735-2.734 9.546 9.546zm40.793 40.792-8.758-8.758 2.734-2.734 8.758 8.758z"/></g><path d="M53.179 71.844v22.198h-3.867V71.844z" fill="#ee442b"/><path d="M53.18 0v26.542h-3.868V0z" fill="#ffeea6"/><circle cx="51.078" cy="47.832" fill="#ffeea6" r="17.185"/></svg></g><g transform="translate(466.0 282.0) rotate(0.0 62.0 62.0) translate(65.77603143418467 0.0) scale(5.904761904761905 5.904761904761905)"><svg width="9.861" height="10.5" viewBox="11.139 0 9.861 10.5"><clipPath id="a"><path d="M0 0h20.35v20.35H0z" fill="#EE442B"/></clipPath><g clip-path="url(#a)"><path d="M10.18 20.35a10.18 10.18 0 1 1 10.17-10.17 10.19 10.19 0 0 1-10.17 10.17zm0-18.35a8.18 8.18 0 1 0 8.17 8.18A8.19 8.19 0 0 0 10.18 2z" fill="#1a1a1a"/></g></svg></g><g transform="translate(466.0 244.0) rotate(0.0 77.0 77.0) translate(81.60899271717237 0.0) scale(7.333333333333333 7.333333333333333)"><svg width="9.872" height="10.5" viewBox="11.128 0 9.872 10.5"><clipPath id="b"><path d="M0 0h20.35v20.35H0z" fill="#EE442B"/></clipPath><g clip-path="url(#b)"><path d="M10.18 20.35a10.18 10.18 0 1 1 10.17-10.17 10.19 10.19 0 0 1-10.17 10.17zm0-18.35a8.18 8.18 0 1 0 8.17 8.18A8.19 8.19 0 0 0 10.18 2z" fill="#1a1a1a"/></g></svg></g><g transform="translate(826.0 280.0) rotate(0.0 41.5 25.0) scale(0.6836677539455043 0.6776261401059807)"><svg width="121.404" height="73.787" viewBox="0 0 121.404 73.787"><path d="M104.362 39.702c-.451 0-.893.033-1.335.068.073-.95.122-1.907.122-2.876C103.149 16.518 86.631 0 66.255 0c-16.11 0-29.8 10.33-34.829 24.724a25 25 0 0 0-6.469-.851C11.174 23.872 0 35.046 0 48.83s11.174 24.957 24.957 24.957h79.404c9.413 0 17.043-7.63 17.043-17.042s-7.63-17.043-17.042-17.043z" fill="#ffeea6"/></svg></g><g transform="translate(824.0 772.0) rotate(19.93569343582855 38.0 50.0) scale(2.2795440911817635 2.241348395194549)"><svg width="33.34" height="44.616" viewBox="0 0 33.34 44.616"><path d="M33.34 27.947C33.34 18.74 16.67 0 16.67 0S0 18.74 0 27.947s7.463 16.67 16.67 16.67 16.67-7.464 16.67-16.67z" fill="#115693"/></svg></g><g transform="translate(753.0 435.0) rotate(98.98898586643602 30.0 34.0) scale(1.501276084671971 1.5153203342618384)"><svg width="39.966" height="44.875" viewBox="0 0 39.966 44.875"><path d="M39.966 44.875 0 15.717 39.551 0zM17.875 17.982 31.1 27.631l-.137-14.85z" fill="#108E82"/></svg></g></svg>